<svg width="18" height="19" viewBox="0 0 18 19" fill="none" xmlns="http://www.w3.org/2000/svg">
<path d="M6.37363 17.2177V14.4148C6.37363 13.6993 6.95791 13.1192 7.67865 13.1192H10.3133C10.6594 13.1192 10.9914 13.2557 11.2361 13.4987C11.4808 13.7416 11.6183 14.0712 11.6183 14.4148V17.2177C11.6161 17.5151 11.7336 17.8012 11.9448 18.0123C12.1559 18.2234 12.4431 18.3421 12.7428 18.3421H14.5403C15.3797 18.3443 16.1856 18.0147 16.78 17.4262C17.3744 16.8377 17.7084 16.0385 17.7084 15.2051V7.22008C17.7084 6.54688 17.4078 5.90831 16.8876 5.4764L10.7729 0.628336C9.70927 -0.221696 8.18527 -0.194251 7.15336 0.69352L1.17818 5.4764C0.633427 5.89558 0.307838 6.53604 0.291748 7.22008V15.197C0.291748 16.934 1.71018 18.3421 3.45991 18.3421H5.21635C5.83871 18.3421 6.34449 17.8437 6.349 17.2258L6.37363 17.2177Z" fill="white"/>
</svg>
