<svg width="19" height="20" viewBox="0 0 19 20" fill="none" xmlns="http://www.w3.org/2000/svg">
<path fill-rule="evenodd" clip-rule="evenodd" d="M10.7406 13.1003C11.8442 13.1003 12.7426 13.9922 12.7426 15.0886V17.9082C12.7426 18.1438 12.9314 18.3326 13.1734 18.3381H14.9206C16.2974 18.3381 17.4167 17.2326 17.4167 15.8741V7.87715C17.4102 7.40965 17.1875 6.96965 16.8053 6.67723L10.7617 1.8574C9.95042 1.21481 8.81558 1.21481 8.00158 1.85923L1.99925 6.6754C1.60233 6.97698 1.37958 7.41698 1.375 7.89273V15.8741C1.375 17.2326 2.49425 18.3381 3.87108 18.3381H5.63475C5.88317 18.3381 6.08483 18.1411 6.08483 17.8991C6.08483 17.8459 6.09125 17.7927 6.10225 17.7423V15.0886C6.10225 13.9986 6.99508 13.1076 8.0905 13.1003H10.7406ZM14.9206 19.7131H13.1569C12.1467 19.6893 11.3676 18.8964 11.3676 17.9082V15.0886C11.3676 14.7503 11.0862 14.4753 10.7406 14.4753H8.09508C7.75683 14.4771 7.47725 14.7531 7.47725 15.0886V17.8991C7.47725 17.9678 7.46808 18.0338 7.44883 18.0961C7.34983 19.0036 6.57433 19.7131 5.63475 19.7131H3.87108C1.73617 19.7131 0 17.9907 0 15.8741V7.88631C0.00916667 6.97515 0.429 6.14098 1.15408 5.5919L7.1445 0.783979C8.46358 -0.261021 10.3015 -0.261021 11.6178 0.782146L17.6513 5.59465C18.3599 6.13456 18.7797 6.9669 18.7917 7.86706V15.8741C18.7917 17.9907 17.0555 19.7131 14.9206 19.7131Z" fill="white"/>
</svg>
