<svg width="23" height="23" viewBox="0 0 23 23" fill="none" xmlns="http://www.w3.org/2000/svg">
<path d="M11.4068 5.73169C10.8382 5.73169 10.2824 5.90031 9.80957 6.21621C9.33678 6.53212 8.96828 6.98114 8.75068 7.50647C8.53308 8.03181 8.47614 8.60988 8.58707 9.16757C8.69801 9.72527 8.97182 10.2375 9.3739 10.6396C9.77597 11.0417 10.2883 11.3155 10.8459 11.4264C11.4036 11.5374 11.9817 11.4804 12.507 11.2628C13.0324 11.0452 13.4814 10.6767 13.7973 10.204C14.1132 9.73116 14.2818 9.17531 14.2818 8.60669C14.281 7.84446 13.9778 7.11369 13.4388 6.57472C12.8998 6.03574 12.1691 5.73256 11.4068 5.73169V5.73169ZM11.4068 10.0442C11.1225 10.0442 10.8446 9.95988 10.6082 9.80193C10.3718 9.64397 10.1876 9.41946 10.0788 9.1568C9.96995 8.89413 9.94149 8.60509 9.99695 8.32625C10.0524 8.0474 10.1893 7.79126 10.3904 7.59022C10.5914 7.38918 10.8475 7.25228 11.1264 7.19681C11.4052 7.14134 11.6943 7.16981 11.9569 7.27861C12.2196 7.38741 12.4441 7.57166 12.6021 7.80806C12.76 8.04445 12.8443 8.32238 12.8443 8.60669C12.8439 8.9878 12.6923 9.35318 12.4228 9.62267C12.1533 9.89216 11.7879 10.0437 11.4068 10.0442V10.0442Z" fill="white"/>
<path d="M16.9312 3.07781C15.5653 1.71221 13.7419 0.900983 11.813 0.800705C9.88408 0.700427 7.98641 1.31821 6.48622 2.53481C4.98602 3.75141 3.98966 5.4806 3.68942 7.38862C3.38919 9.29665 3.80636 11.2483 4.86044 12.8668L10.2918 21.2049C10.4127 21.3904 10.5779 21.5428 10.7726 21.6484C10.9673 21.7539 11.1852 21.8092 11.4067 21.8092C11.6281 21.8092 11.846 21.7539 12.0407 21.6484C12.2354 21.5428 12.4006 21.3904 12.5215 21.2049L17.9531 12.8668C18.9311 11.3654 19.3633 9.57337 19.1773 7.79117C18.9913 6.00897 18.1983 4.34487 16.9312 3.07781V3.07781ZM16.7486 12.0821L11.4067 20.2826L6.0647 12.0821C4.42955 9.57195 4.78025 6.21269 6.89859 4.09426C7.49059 3.50224 8.19341 3.03262 8.96691 2.71222C9.74041 2.39182 10.5694 2.22691 11.4067 2.22691C12.2439 2.22691 13.0729 2.39182 13.8464 2.71222C14.6199 3.03262 15.3228 3.50224 15.9148 4.09426C18.0331 6.21269 18.3838 9.57195 16.7486 12.0821Z" fill="white"/>
</svg>
