<svg width="16" height="16" viewBox="0 0 20 20" fill="none" xmlns="http://www.w3.org/2000/svg">
<path fill-rule="evenodd" clip-rule="evenodd" d="M9.7824 1.66663C14.2574 1.66663 17.8974 5.30663 17.8974 9.78163C17.8974 11.8929 17.0872 13.8185 15.7613 15.2637L18.3702 17.8672C18.6144 18.1114 18.6152 18.5064 18.3711 18.7505C18.2494 18.8739 18.0886 18.9347 17.9286 18.9347C17.7694 18.9347 17.6094 18.8739 17.4869 18.7522L14.8464 16.1191C13.4575 17.2315 11.6963 17.8975 9.7824 17.8975C5.3074 17.8975 1.66656 14.2566 1.66656 9.78163C1.66656 5.30663 5.3074 1.66663 9.7824 1.66663ZM9.7824 2.91663C5.99657 2.91663 2.91657 5.99579 2.91657 9.78163C2.91657 13.5675 5.99657 16.6475 9.7824 16.6475C13.5674 16.6475 16.6474 13.5675 16.6474 9.78163C16.6474 5.99579 13.5674 2.91663 9.7824 2.91663Z" fill="#6F7789"/>
</svg>
